<?xml version="1.0" encoding="utf-8"?>
<!-- Generator: Adobe Illustrator 22.0.1, SVG Export Plug-In . SVG Version: 6.00 Build 0)  -->
<svg version="1.1" id="Layer_1" xmlns="http://www.w3.org/2000/svg" xmlns:xlink="http://www.w3.org/1999/xlink" x="0px" y="0px"
	 viewBox="0 0 1080 592.1" style="enable-background:new 0 0 1080 592.1;" xml:space="preserve">
<style type="text/css">
	.st0{fill:#231F20;}
</style>
<g>
	<g>
		<g>
			<path class="st0" d="M24.7,35.3c33.2,0,65.6,0,98.6,0c0,1.8,0,3.3,0,4.9c0.1,23.7,0.1,47.4,0.2,71.1
				c0.1,59.1,0.2,118.3,0.4,177.4c0.2,54.4,0.4,108.7,0.6,163.1c0,10.4,3.2,13.5,13.6,13.5c10,0,19.9-0.1,29.9,0.1
				c4.6,0.1,7.2-2,8-6.3c0.6-3.1,0.9-6.3,0.9-9.5c0-135.4,0-270.9,0-406.3c0-2.5,0-5.1,0-8c33.1,0,65.7,0,99.2,0c0,2.5,0,5,0,7.5
				c0,98.2,0,196.4,0,294.6c0,51.2,0.2,102.4,0.2,153.5c0,29.6-18.1,55.9-44.7,63.1c-9.6,2.6-20.1,2.5-30.1,2.6
				c-20.1,0.2-40.2-0.4-60.3-0.7c-19.7-0.3-39.4-0.4-59.1-0.8c-28.2-0.6-53.6-25.2-56.7-55c-0.4-3.4-0.6-6.7-0.6-10.1
				c0-149,0-297.9,0-446.9C24.7,40.6,24.7,38.2,24.7,35.3z"/>
		</g>
		<g>
			<path class="st0" d="M294.5,35c3.2,0,5.6,0,8,0c55.6,0,111.1,0.5,166.7-0.2c25.6-0.3,49.3,18.2,54.5,46.6
				c0.8,4.5,1.1,9.1,1.1,13.7c0.1,86,0.1,172,0,258.1c0,23.6-8.8,43-29.2,56.2c-9.5,6.1-20,8.4-31.2,8.4c-28.3,0-56.5,0.2-84.8,0.4
				c-2,0-3.9,0-6.4,0c0,46.5,0,92.4,0,138.8c-32.3,0-64,0-96.6,0c0.5-7.6-1.5-14.9,4.3-22.6c10.4-13.6,12-30.4,13.4-47
				c0.4-4.6,0.3-9.2,0.3-13.7c0-143.4,0-286.7,0-430.1C294.5,40.9,294.5,38.4,294.5,35z M372,330.2c14.9,0,29.4,0,43.9,0
				c11.9,0,14-2,14-13.8c0-58.1,0-116.2,0-174.3c0-2.4,0-4.8-0.5-7.1c-0.9-4.5-3.6-8.1-8.3-8.2c-16.3-0.3-32.5-0.1-49.1-0.1
				C372,194.5,372,261.9,372,330.2z"/>
		</g>
		<g>
			<path class="st0" d="M607.2,553.5c-29.8,0-59.2,0-89.6,0c32.4-94.2,64.8-188,97.2-282.1c2.3,1.3,4.1,2.4,7.3,4.3
				c-2-4.5-3.4-7.8-4.9-11c-13.6-30.1-27.1-60.2-40.9-90.1c-1.9-4.2-2.6-8.1-0.5-11.9c6.3-11.7,12.5-23.4,19.7-34.6
				c8.8-13.7,18.6-26.8,27.8-40.3c5.4-7.9,10.7-9,18.4-3.2c5.4,4.1,10.7,8.3,16.1,12.4c0.3,0.2,0.4,0.6,0.6,0.9
				c-1.5,2.2-3,4.5-4.6,6.7c0.2,0.4,0.5,0.8,0.7,1.1c1.8-0.5,4.1-0.4,5.2-1.5c3.9-4.2,7.8-2.8,11.9-0.8c6.8,3.3,13.5,6.7,20.4,9.8
				c3.6,1.6,4.3,4,3.7,7.6c-2.8,17.9-14.7,26.8-33.7,24.9c-12.9-1.3-23.8-6-31.2-17.3c-1.6-2.4-3.9-4.3-6-6.5c-4.1,6-4,10,0.3,15.1
				c2.6,3,5.6,5.7,8.3,8.6c5.8,6.3,6.1,8.9,1.7,16.3c-2.9,4.8-6.2,9.3-9.2,13.9c-1.3,2.1-2.4,4.4-3.6,6.6c0.6,0.5,1.2,1.1,1.8,1.6
				c3.5-3.4,7.2-6.6,10.4-10.2c2.7-3.1,4.7-6.9,7.2-10.2c0.7-0.9,2.3-1.1,3.4-1.7c0.5,1.3,1.7,2.8,1.5,4c-1.2,6.8-2.8,13.6-4.1,20.5
				c-0.5,2.5-0.6,5-0.9,7.5c0.6,0.3,1.2,0.6,1.9,0.9c1.9-3.2,4.2-6.2,5.7-9.6c4.1-9.4,4.6-9.7,13.9-5.3c5.9,2.8,10.5,6.8,13.8,12.7
				c15.2,27.3,18,56.5,13.6,86.8c-0.2,1.3-0.7,2.6-1.2,4.9c-4.2-0.8-8.2-1.5-12.2-2.5c-3.1-0.7-6.1-1.9-9.2-2.5
				c-4.6-0.9-6.8,0.5-7,5.8c-0.7,15.5-2.1,30.9-2.2,46.7c4-12.9,8.1-25.8,12.2-39c5.5,1.1,10.7,2,15.8,3.3c4.7,1.2,6.8-0.8,8.6-4.8
				c4.7-11.1,6-22.7,5.6-34.5c-0.4-11.5-2-22.9-3.1-35.2c5.5,0.6,11.4,1.3,17.9,2.1c0-4,0-7.8,0-13.3c8.8,10.2,16.5,19,24.2,27.8
				c0.5-0.4,1-0.7,1.5-1.1c0.7-9.5-6.7-16.5-8.6-25.5c6.2-4.3,12.7-6.3,20.1-3.2c7,2.9,13.9,2.5,20.6-1.4c6.5-3.7,13.4-6.9,21.4-11
				c-1.8,7.6-3.2,14-4.8,20.2c-6.7,25.4-14.9,50.3-27.2,73.7c-7.9,14.9-18.7,26.4-36.3,29c-5.2,0.8-10.6,0.1-16.5,1.4
				c7,2.6,14.1,5.2,22.1,8.1c-18.6,74.5-37.3,149.6-56.1,225c-11.5,0-22.7,0-34.8,0c3.2-14.5,6-28.8,9.6-42.8
				c14.1-54.3,28.5-108.4,42.6-162.7c0.9-3.5,0.8-7.3,1.2-11c-0.7-0.1-1.4-0.2-2.1-0.3c-2.9,10.6-5.9,21.2-8.7,31.8
				c-16.1,59.5-32.2,119-48,178.5c-1.5,5.5-3.8,7.5-9.3,6.8c-4.1-0.5-8.3-0.1-13.4-0.1c17.7-68,35.4-135.5,53-203
				c-0.6-0.2-1.1-0.3-1.7-0.5C645.5,418,626.3,485.7,607.2,553.5z"/>
		</g>
		<g>
			<path class="st0" d="M910.9,400.4c1.9,0.9,3.1,1.5,4.6,2.2c-0.1-0.9,0-1.5-0.3-2c-11.2-24.2-22.5-48.3-33.5-72.5
				c-1.2-2.7-1.6-6.9-0.4-9.5c3.6-7.7,7.7-15.3,12.4-22.3c7.6-11.4,15.9-22.4,23.9-33.5c4.3-6.1,8-6.7,14-2.4
				c4.3,3.2,8.6,6.4,13,9.7c-1.1,1.9-2.1,3.5-3.2,5.3c0.8,0.4,1.6,0.9,1.8,0.8c5.9-5.6,11.3-1.5,16.8,0.8c1.3,0.5,2.7,1,3.7,1.8
				c3.3,2.4,8.9,4.8,9.1,7.6c0.5,7-2.4,13.7-9.4,17.3c-12,6.2-30.1,2.2-38.6-8.4c-1.8-2.3-3.8-4.4-6-6.9c-3.7,5-2.3,8.8,0.9,12.2
				c10.9,11.7,10.9,11.7,2.1,24.9c-1.7,2.6-3.3,5.3-5.4,8.8c10.1-1.8,10.6-13.2,20-16.9c-1.8,9.2-3.3,16.9-4.9,24.7
				c0.6,0.3,1.2,0.5,1.8,0.8c2.5-4.3,5-8.6,7.6-13.2c7.1,1.6,13.5,4.3,17.4,11c11.9,20.4,14.3,42.3,11.1,65.2
				c-0.6,4-2.8,4.2-5.9,3.5c-5.3-1.2-10.6-2.3-16.5-3.6c-1,13.4-1.9,25.4-2.8,37.5c0.4,0.1,0.7,0.2,1.1,0.3c2.9-9,5.9-18,8.9-27.2
				c2.3,0.5,4.2,1,6.1,1.4c10.7,2.6,12.1,1.9,14.8-9c3.5-13.8,2.2-27.7-0.1-41.5c-0.2-1.2-0.4-2.3-0.6-4.1c4.7,0.5,9.2,0.9,14,1.4
				c0-2.9,0-5.6,0-10c6.9,7.6,12.9,14.1,18.8,20.6c0.6-0.4,1.3-0.8,1.9-1.3c-2.4-5.9-4.8-11.8-7.4-18.2c4.2-2.8,8.5-5.1,13.7-3.1
				c7.3,2.9,13.9,2.1,20.5-1.9c4-2.4,8.3-4.2,13.7-6.8c-6.6,27.3-13.7,52.9-28.1,75.7c-8.4,13.3-19.8,17.9-36.3,17.5
				c5.1,1.9,10.2,3.8,16.1,5.9c-7.8,36.5-15.6,73.3-23.5,110.4c-8.7,0-17.2,0-26.6,0c1.9-10.1,3.4-20,5.6-29.8
				c4.9-22.1,10-44.2,15-66.3c0.6-2.5,0.5-5.1,0.8-7.6c-0.6-0.1-1.1-0.1-1.7-0.2c-8.5,34.7-17,69.3-25.5,104.1
				c-29.8,0-59.3,0-89.6,0C874.2,502.4,892.4,451.7,910.9,400.4z"/>
		</g>
		<g>
			<path class="st0" d="M765.4,343.9c0.5,2.6,0.4,5.4,1.5,7.7c1,2.1,3,3.7,4.8,5.2c4.5,3.7,4.2,7.7,1.2,12
				c-2.4,3.5-4.7,7.1-7.1,10.7c0.6,0.5,1.2,1,1.8,1.5c3.8-4.5,7.7-9.1,11.5-13.6c0.6,0.2,1.2,0.4,1.8,0.6c-1.1,6.3-2.1,12.7-3.2,19
				c0.5,0.2,1,0.4,1.5,0.6c1.3-2.4,2.8-4.8,3.9-7.3c1.3-2.9,3.1-4.3,5.9-2.3c3.7,2.8,8.3,5.2,10.6,9c10.5,17.4,11.6,36.4,8.2,56.9
				c-5.8-1.2-11.2-2.3-17.7-3.6c-0.8,10.9-1.6,21-2.4,31.1c0.3,0.1,0.6,0.1,0.9,0.2c2.3-7.3,4.7-14.6,7.1-22.2
				c1.3,0.1,2.5,0.1,3.5,0.4c11,2.6,12.6,2.2,14-9.1c1.2-9.5,0.3-19.4,0.1-29.1c0-2-0.6-3.9-1-6.6c3.9,0.3,7.3,0.6,11.1,0.9
				c0.2-2.4,0.3-4.6,0.6-8c5.6,6.3,10.4,11.7,15.1,17.1c0.5-0.3,1-0.6,1.6-0.9c-1.9-5-3.8-10-6.2-16.3c3.9-0.7,7.8-2.6,10.6-1.5
				c7.6,2.8,14,0.9,20.4-2.9c2.4-1.4,4.9-2.5,8.9-4.5c-2.4,9-4,16.7-6.7,24c-4.3,11.9-8.8,23.9-14.4,35.3
				c-6.1,12.5-16.3,19.4-31,17.4c-0.2,0.5-0.3,1-0.5,1.4c4,1.4,8,2.8,12.7,4.4c-6.9,27.2-13.8,54.5-20.8,82.1c-7.1,0-14,0-21.9,0
				c6.6-25.4,13.1-50.6,19.6-75.7c-0.7-0.2-1.4-0.4-2.1-0.5c-7.4,25.4-14.8,50.7-22.2,76.2c-4.4,0-8.4,0-13,0
				c2.3-8.6,4.4-16.7,6.6-24.9c-0.4-0.1-0.8-0.2-1.1-0.3c-2.1,7.2-4,14.4-6.4,21.5c-0.6,1.7-3,3.8-4.5,3.8
				c-16.1,0.3-32.2,0.2-49.2,0.2c1-3,1.7-5.5,2.6-8c12.2-34.9,24.3-69.8,36.6-104.7c0.7-1.9,2.4-3.4,4.5-6.2
				c-8-17.5-16.6-36.7-25.7-55.7c-2.7-5.7-2.9-10.7,0.2-15.7c5.8-9.2,12-18.3,18.1-27.4c3.3-5,6.8-9.8,10.2-14.7
				c3.3-4.7,6.4-5.3,11.1-1.9c3.6,2.5,7,5.3,10.7,8.2c-0.8,1.5-1.6,3-2.4,4.5c0.6,0.2,1.2,0.6,1.3,0.5c4.5-4,8.8-1.8,13.1,0.4
				c1.2,0.6,2.7,1,3.7,1.8c2.8,2.1,7.5,4.3,7.6,6.7c0.3,5.7-2.1,11.3-8,14.2c-9.8,4.8-24.1,1.8-31-6.7c-1.6-2-3.3-3.8-5-5.7
				C766.6,343.5,766,343.7,765.4,343.9z"/>
		</g>
		<g>
			<path class="st0" d="M686.1,103.2c4.5-10.9,8.5-21.3,13-31.3c2.3-5.2,6.8-7.4,12.3-4.8c7.9,3.7,15.6,7.7,23.5,11.5
				c5.8,2.8,6.9,7.5,4.8,13c-7.9,20.3-15.9,40.6-24.2,60.8c-2.6,6.2-5.9,12.2-9.1,18c-3.8,6.9-9.3,9.4-17,7.5
				c-7.3-1.8-14.3-4.6-21.6-6.6c-5.5-1.5-6.5-4.9-5.5-9.9c1.1-5.7,4.5-9.2,10-10.5c2.9-0.7,5.9-0.7,8.8-1.3c7-1.5,12.7-5,15.3-11.9
				c2.4-6.3,4.2-12.8,6.3-19.2c1.3-4.1,0-6.6-4.1-8.4C694.5,108.3,690.7,105.8,686.1,103.2z"/>
		</g>
		<g>
			<path class="st0" d="M706,183.8c6.7-14.7,13.3-29.3,19.9-43.9c4.7-10.5,9.3-21,14-31.5c1.1-2.5,2.2-5.1,3.8-7.4
				c4.8-7.1,10.2-8.2,17.2-3.2c5.8,4.1,11.3,8.8,17,13.1c3.9,3,4.8,6.5,2.6,10.9c-6.2,12-12.2,24.1-18.5,36
				c-5.4,10.2-11,20.2-16.7,30.3c-4.1,7.2-7.7,8.1-15.3,4.9C722.7,189.9,715.2,187.3,706,183.8z"/>
		</g>
		<g>
			<path class="st0" d="M981.3,334.8c4-9.1,7.9-18,11.9-26.8c4.6-10.1,9.6-20.1,14-30.2c4.7-10.6,9.8-12.4,19.1-5.5
				c16.3,12.1,15.8,9.4,6.5,27.2c-6.6,12.7-13.9,25-21,37.4c-3.8,6.7-6,7.2-13.1,4.3C993.4,339.1,988,337.3,981.3,334.8z"/>
		</g>
		<g>
			<path class="st0" d="M794.3,191.5c1-6.4,2-12.7,3-19.1c-0.3-0.1-0.6-0.2-0.9-0.4c-3.9,7.3-8,14.5-11.5,21.9
				c-1.6,3.5-3.9,4.2-7.1,3.4c-2.9-0.7-5.8-1.5-8.5-2.7c-12.2-5.4-14.2-12-7.6-23.6c7.7-13.7,15-27.6,22.8-41.2
				c3.7-6.4,5.8-6.4,11.5-1.4c3.1,2.7,6.4,5.3,9.4,8.2c0.9,0.8,1.7,2.4,1.5,3.4c-3.4,17.3-7.1,34.5-10.6,51.7
				C795.7,191.7,795,191.6,794.3,191.5z"/>
		</g>
		<g>
			<path class="st0" d="M984.5,244.6c8.4,5.1,16.1,9.4,23.2,14.6c1.2,0.9,0.6,5.8-0.5,8.3c-6.7,14.4-13.6,28.7-20.7,42.9
				c-2.9,5.9-6.4,11.4-9.3,17.3c-1.6,3.3-3.9,4.4-7.1,3.3c-4.5-1.4-9.2-2.6-13.4-4.8c-2.2-1.1-5.1-4.4-4.8-6.2
				c0.6-3.3,3.2-6.3,5.4-9.1c0.7-0.9,2.5-1,3.9-1.1c9.4-0.5,14.9-5.6,17.3-14.5c0.5-1.7,1-3.4,1.6-5.1c2.3-5.9,1.4-10.3-5.2-12.4
				c-5.5-1.7-6-5-3.5-9.9c2.5-4.9,3.9-10.4,6.4-15.4C979.1,249.9,981.6,247.9,984.5,244.6z"/>
		</g>
		<g>
			<path class="st0" d="M818.1,381.5c4-8.9,8-17.7,12-26.5c3.1-6.9,6.4-13.7,9.2-20.6c3.7-8.9,8.2-10.4,15.9-4.8
				c12.6,9,12.7,9.1,5.4,22.7c-5.5,10.4-11.4,20.5-17,30.8c-2.8,5.2-6.3,6.5-11.7,3.7C827.9,384.6,823.5,383.5,818.1,381.5z"/>
		</g>
		<g>
			<path class="st0" d="M808.2,331.3c2.7-6.8,5.1-13.2,7.7-19.6c1.5-3.6,4.7-4.3,8-2.8c4.8,2.3,9.8,4.5,14,7.8
				c1.7,1.4,2.7,6.1,1.7,8.2c-8.1,17.2-16.6,34.2-25.2,51.2c-0.6,1.2-2.9,2.4-4.1,2.1c-4-0.8-8.1-1.9-11.8-3.7c-2-1-4.6-4.1-4.3-5.8
				c0.4-2.7,3-5,4.9-7.4c0.4-0.5,1.4-0.6,2.2-0.8c11-2.5,16.5-9.3,16.8-20.8c0-1.2-1-2.9-2-3.7C813.9,334.4,811.4,333.1,808.2,331.3
				z"/>
		</g>
		<g>
			<path class="st0" d="M693.1,66.1c1,11.6-2.7,21.1-8.1,30c-0.7,1.1-3.4,2-4.7,1.5c-14-4.8-25.7-13.1-35.6-24.1
				c-2.2-2.4-1.5-4.1,0.5-6c5.5-5.1,11.6-8.1,19.4-6.6C673.9,62.8,683.3,64.4,693.1,66.1z"/>
		</g>
		<g>
			<path class="st0" d="M1049.2,340.1c0.6-4.4,1.3-8.7,1.9-13.1c-0.3-0.1-0.6-0.2-0.8-0.3c-2.6,4.8-5.4,9.5-7.7,14.5
				c-1.6,3.4-3.8,4.5-7.1,3.3c-3.5-1.3-7.1-2.6-10.2-4.5c-4.6-2.9-5.5-7.2-2.9-11.9c6.4-11.4,13-22.8,19.4-34.2
				c2.3-4.2,5-3.8,8.1-1.1c3,2.6,6,5.2,9.4,8.2c-2.8,12.8-5.7,26.1-8.5,39.4C1050.2,340.3,1049.7,340.2,1049.2,340.1z"/>
		</g>
		<g>
			<path class="st0" d="M873.8,385.9c0.4-3.1,0.8-6.2,1.3-9.2c-0.3-0.2-0.6-0.3-0.9-0.5c-1.8,3.3-3.8,6.5-5.2,9.9
				c-1.7,4-4.3,4.5-8.1,3.3c-10.3-3.2-12.2-7.8-6.9-17.3c4.5-8,8.9-15.9,13.3-24c2.3-4.2,4.5-3.4,7.9-1c5.9,4,7.3,8.5,5.1,15.4
				c-2.5,7.7-3.5,15.8-5.1,23.7C874.7,386.1,874.2,386,873.8,385.9z"/>
		</g>
		<g>
			<path class="st0" d="M931.8,250.9c4.5-6.3,9.5-9.1,15.9-8.3c6.7,0.8,13.4,2,19.9,3.5c1.4,0.3,2.5,2.7,3.5,4.2
				c0.3,0.5,0,1.5-0.1,2.3c-1.8,18.2-7.4,21.2-22.5,11.5C942.7,260.4,937.5,255.4,931.8,250.9z"/>
		</g>
		<g>
			<path class="st0" d="M777.7,311.7c4.2-5.9,8.8-7.8,14.7-6.8c4.7,0.8,9.5,1.3,14,2.7c1.6,0.5,2.5,2.9,3.7,4.6
				c0.2,0.2-0.1,0.8-0.1,1.2c-2.1,15.4-6.4,17.5-19.1,9.1C786.3,319.4,782.3,315.5,777.7,311.7z"/>
		</g>
	</g>
</g>
</svg>
